<svg xmlns="http://www.w3.org/2000/svg" viewBox="0 0 512 512">
  <rect width="512" height="512" rx="96" fill="#fff4ef"/>
  <path d="M96 184c0-28 22-50 50-50h220c28 0 50 22 50 50v162c0 28-22 50-50 50H146c-28 0-50-22-50-50V184z" fill="#fffdfb" stroke="#c56d5d" stroke-width="22"/>
  <path d="M116 172l140 118 140-118" fill="none" stroke="#c56d5d" stroke-width="22" stroke-linecap="round" stroke-linejoin="round"/>
  <path d="M106 370l112-104" fill="none" stroke="#c56d5d" stroke-width="18" stroke-linecap="round"/>
  <path d="M406 370L294 266" fill="none" stroke="#c56d5d" stroke-width="18" stroke-linecap="round"/>
  <path d="M345 118c24-33 78-17 79 25 0 48-79 85-79 85s-79-37-79-85c1-42 55-58 79-25z" fill="#d76555"/>
</svg>
